<svg version="1.1" id="Layer_1" xmlns="http://www.w3.org/2000/svg" xmlns:xlink="http://www.w3.org/1999/xlink" x="0px" y="0px"
	 width="100%" viewBox="0 0 1024 1024" enable-background="new 0 0 1024 1024" xml:space="preserve">
<path fill="white" opacity="1.000000" stroke="none" 
	d="
M561.852966,226.880325 
	C637.549805,250.095551 692.908752,296.482605 726.142334,368.253448 
	C736.405273,390.417023 742.033691,413.960876 744.485901,438.358795 
	C750.108765,494.302704 738.964600,546.302490 708.692383,593.860657 
	C690.914185,621.790466 667.583496,644.446899 640.583069,663.404358 
	C607.278748,686.787903 570.416077,701.384888 530.152527,707.024841 
	C511.818939,709.592957 493.402344,709.500977 474.877777,707.631958 
	C435.316803,703.640381 399.041595,690.539551 365.579987,669.505432 
	C321.432465,641.754150 288.483246,604.211182 268.769257,555.690125 
	C259.716583,533.409180 254.197693,510.220276 252.455109,486.073578 
	C249.555878,445.899261 254.001190,406.821472 270.561157,369.936523 
	C305.414459,292.305664 364.756409,243.779663 447.408417,223.754532 
	C453.532135,222.270874 459.846100,221.588821 466.017883,220.280655 
	C469.268372,219.591690 470.917450,220.551254 470.908173,223.852951 
	C470.873962,236.015869 470.763458,248.178558 470.700134,260.341431 
	C470.680450,264.122009 467.612366,263.797424 465.338287,264.136230 
	C453.943817,265.833862 442.793365,268.519745 431.956512,272.388458 
	C402.611847,282.864227 377.037689,299.329285 354.983063,321.292480 
	C326.023071,350.132385 305.676849,384.156281 298.886353,424.541168 
	C286.226562,499.832245 307.465576,564.017029 365.662598,614.828430 
	C366.870422,615.882935 367.920319,617.344055 369.976593,617.220276 
	C371.808228,615.216614 371.636841,612.662170 371.542938,610.225403 
	C370.393921,580.409363 371.224091,550.581238 370.959656,520.760254 
	C370.894135,513.368042 370.933960,513.366516 363.481079,513.367981 
	C348.316376,513.370972 333.151611,513.396301 317.987061,513.350647 
	C316.254730,513.345459 314.351959,513.937012 312.493103,512.310486 
	C314.373413,509.274017 317.197815,507.188751 319.764374,504.969696 
	C375.604462,456.691254 430.391418,407.227509 485.357788,357.965546 
	C488.583649,355.074463 491.999756,352.387115 495.118774,349.388123 
	C497.729553,346.877838 499.650360,347.180969 502.292786,349.569702 
	C525.651306,370.685791 549.057434,391.750519 572.584595,412.678497 
	C608.931458,445.009888 644.714417,477.979980 681.915039,509.345825 
	C683.029419,510.285431 684.225342,511.148407 684.705994,512.596863 
	C683.277893,514.049866 681.704590,513.352966 680.296692,513.356323 
	C664.632202,513.393982 648.967407,513.355103 633.302856,513.383423 
	C626.914856,513.394958 626.207825,514.132385 626.200439,520.659058 
	C626.165588,551.488403 626.145325,582.317688 626.154907,613.147034 
	C626.155396,614.748169 625.711243,616.485535 627.356873,618.409668 
	C632.398254,615.303406 636.659485,611.153320 640.839111,607.043823 
	C673.352295,575.076538 693.901062,536.993591 699.775024,491.398651 
	C705.168945,449.529694 700.326782,409.433746 679.711426,371.952637 
	C654.748718,326.567627 618.088745,294.260590 570.322083,274.570953 
	C558.316040,269.622009 545.719849,266.287354 532.844604,264.355713 
	C528.417419,263.691559 526.636780,261.946686 526.772766,257.260925 
	C527.077087,246.771805 526.804749,236.266693 526.821533,225.768173 
	C526.829834,220.534592 527.620239,219.879684 533.191711,220.800064 
	C542.699524,222.370712 552.142029,224.277725 561.852966,226.880325 
M536.389038,443.124725 
	C525.053101,432.816223 513.627075,422.604095 502.438171,412.138428 
	C499.231018,409.138580 497.060028,409.304382 494.225708,412.462830 
	C491.567810,415.424713 488.430481,417.959869 485.474548,420.650330 
	C463.060181,441.052032 440.658966,461.468353 418.184662,481.803925 
	C416.142212,483.652008 415.306610,485.604431 415.309326,488.316101 
	C415.361145,539.791321 415.372589,591.266663 415.295227,642.741760 
	C415.290558,645.865601 416.356171,647.590393 419.208160,648.827820 
	C441.878174,658.663879 465.612610,664.286011 490.202698,665.524231 
	C519.879517,667.018799 548.405212,661.165100 575.953430,650.132751 
	C580.286499,648.397461 581.965088,646.131470 581.948669,641.313904 
	C581.775940,590.672546 581.805481,540.030273 581.930603,489.388611 
	C581.940735,485.282562 580.407288,482.487732 577.506592,479.909851 
	C563.937256,467.850647 550.439880,455.710480 536.389038,443.124725 
z"/>
<path fill="#000000" opacity="1.000000" stroke="none" 
	d="
M435.103912,383.072815 
	C422.172760,398.158997 407.093750,409.567200 388.461975,415.987335 
	C379.295746,419.145844 369.883026,419.628571 360.363068,418.943878 
	C355.624115,418.603027 354.962311,417.086456 357.457733,412.785187 
	C363.694244,402.035645 372.111694,393.009003 380.583069,384.060760 
	C387.680359,376.563934 394.966309,369.244110 402.240509,361.917206 
	C404.676300,359.463745 404.989899,357.451630 402.346466,354.767761 
	C399.436798,351.813629 397.830048,353.738373 395.841095,355.696899 
	C381.134979,370.177887 366.081207,384.323517 353.021515,400.382782 
	C352.296570,401.274261 351.573792,402.253448 349.618591,402.184082 
	C346.243011,397.468994 346.041046,391.554352 345.801208,385.940308 
	C344.969788,366.479279 352.754608,350.410858 366.023987,336.599792 
	C378.055237,324.077393 392.476990,315.498383 408.761597,309.752716 
	C424.342377,304.255310 440.249969,300.283203 456.672913,298.287689 
	C459.782776,297.909790 461.113708,298.496216 461.041992,301.653809 
	C460.370758,331.206238 454.834381,359.213928 435.103912,383.072815 
M419.371643,344.822601 
	C419.996002,344.044739 420.650848,343.289093 421.238403,342.484314 
	C422.453125,340.820496 423.723114,339.015076 421.636322,337.233032 
	C419.553772,335.454681 417.854767,337.085388 416.415771,338.404266 
	C413.843170,340.762085 411.473816,343.340027 408.943359,345.745911 
	C407.152100,347.448975 407.026794,348.970703 408.763184,350.852905 
	C410.570099,352.811584 412.074463,352.625305 413.745575,350.783813 
	C415.421173,348.937408 417.171631,347.158905 419.371643,344.822601 
z"/>
<path fill="#000000" opacity="1.000000" stroke="none" 
	d="
M569.748901,300.106110 
	C583.030762,305.660522 594.718628,312.954102 603.758057,323.791687 
	C615.761902,338.183380 619.999939,354.751068 616.393982,373.218567 
	C616.140930,374.514526 615.682983,375.783936 615.190918,377.013916 
	C614.961914,377.586304 614.422546,378.034515 614.039612,378.519073 
	C611.357239,378.328094 610.324219,376.191986 608.962952,374.654449 
	C598.906921,363.295685 588.232544,352.552551 576.983887,342.382721 
	C575.295349,340.856110 573.547241,337.864441 570.828552,340.776642 
	C568.246643,343.542236 571.101685,345.371948 572.631775,347.056854 
	C581.362244,356.671082 591.328125,365.093567 599.664551,375.102081 
	C603.096252,379.222168 606.135742,383.554962 608.370483,388.433380 
	C610.547546,393.185944 609.937805,394.598083 604.412476,395.119049 
	C595.203064,395.987366 586.065430,395.155945 577.510559,391.387787 
	C557.661987,382.644989 544.348816,367.215546 534.737244,348.331848 
	C526.249939,331.657013 522.398560,313.693756 520.515076,295.163025 
	C519.964905,289.750916 522.270691,289.222534 526.361206,289.736664 
	C541.075134,291.585907 555.620605,294.148224 569.748901,300.106110 
M560.109802,333.207855 
	C561.603027,334.668579 563.186218,334.865662 564.106750,332.820312 
	C564.906067,331.044067 563.489136,329.836731 561.970581,329.590576 
	C559.633972,329.211823 559.092163,330.643005 560.109802,333.207855 
z"/>
<path fill="#000000" opacity="1.000000" stroke="none" 
	d="
M687.716919,767.035583 
	C687.815430,755.602539 686.528320,757.004333 697.683167,756.614075 
	C702.441345,756.447510 704.119751,757.930664 704.059570,762.785889 
	C703.863220,778.610779 703.956543,794.441650 704.159912,810.267395 
	C704.216125,814.640442 702.991760,816.310608 698.243347,816.483948 
	C691.870850,816.716614 687.337585,815.057434 683.377808,809.737793 
	C677.833069,802.289062 671.368774,795.524780 665.278259,788.444946 
	C663.492798,789.287170 664.160522,790.814880 664.126648,791.950684 
	C663.997559,796.278931 664.034546,800.612671 664.041382,804.944397 
	C664.060486,817.038696 662.778442,818.058228 650.532288,816.306458 
	C648.097351,815.958191 647.569336,814.706055 647.477295,812.647827 
	C646.710388,795.497314 647.093323,778.338074 647.015747,761.182129 
	C647.000061,757.711853 648.524475,756.783813 651.862854,756.583984 
	C657.301697,756.258606 661.179138,757.812927 664.657104,762.314209 
	C670.655823,770.078003 677.379822,777.282715 683.838257,784.688232 
	C684.658447,785.628723 685.315063,786.961060 687.716797,786.744629 
	C687.716797,780.378601 687.716797,773.953674 687.716919,767.035583 
z"/>
<path fill="#000000" opacity="1.000000" stroke="none" 
	d="
M545.135376,812.258911 
	C541.204163,815.113892 537.130371,816.327576 532.667969,816.326538 
	C522.839050,816.324280 513.006592,816.175415 503.182892,816.403564 
	C499.105713,816.498230 498.031921,814.812073 498.090790,811.073486 
	C498.347504,794.765564 498.605316,778.453308 498.459900,762.146301 
	C498.419434,757.612000 499.874268,756.451477 504.156830,756.602234 
	C512.476074,756.895020 520.813049,756.689636 529.142639,756.683716 
	C536.500916,756.678406 543.515869,758.155029 546.912170,765.373352 
	C550.351685,772.683533 548.705994,779.681885 542.393066,785.722229 
	C547.387756,789.690491 551.903625,793.894958 551.314636,800.890991 
	C550.932129,805.433899 548.985046,809.159912 545.135376,812.258911 
M529.747070,794.326599 
	C526.444031,794.283508 523.137817,794.314880 519.838867,794.175049 
	C516.910339,794.051025 515.215881,794.785034 515.167786,798.246094 
	C515.118713,801.781555 516.540039,802.978271 519.881226,802.773193 
	C522.679932,802.601318 525.496399,802.708374 528.304993,802.713928 
	C530.568420,802.718445 532.755981,802.393799 533.537292,799.901978 
	C534.380798,797.211609 533.025391,795.479248 529.747070,794.326599 
M527.736084,771.388000 
	C524.596985,771.383850 521.457886,771.367310 518.318848,771.378784 
	C514.787964,771.391724 515.135498,774.003113 515.069458,776.303528 
	C515.002686,778.631042 515.285889,780.695923 518.394348,780.626465 
	C521.036072,780.567444 523.710205,780.819580 526.313171,780.488159 
	C528.899414,780.158936 530.998413,778.694702 531.558228,775.925049 
	C532.034241,773.569885 530.660339,772.219482 527.736084,771.388000 
z"/>
<path fill="#000000" opacity="1.000000" stroke="none" 
	d="
M565.652222,787.017944 
	C565.889099,768.714233 579.929810,755.534363 598.476013,755.698792 
	C617.812256,755.870117 631.190674,771.785400 630.494263,788.047668 
	C629.778381,804.765198 616.150757,818.264282 598.509033,818.325500 
	C579.932678,818.389954 565.803284,805.127136 565.652222,787.017944 
M584.953674,778.648560 
	C584.497742,779.713623 583.900513,780.741333 583.607666,781.849487 
	C580.498779,793.613342 590.380920,805.060913 601.150940,802.212463 
	C607.953796,800.413208 612.330383,795.396790 612.729431,788.941467 
	C613.218750,781.024292 609.596741,774.969177 602.790710,772.326599 
	C596.424622,769.854858 590.241211,771.859741 584.953674,778.648560 
z"/>
<path fill="#000000" opacity="1.000000" stroke="none" 
	d="
M471.220428,798.348267 
	C475.245453,804.109192 479.128937,809.583496 483.809784,816.181702 
	C476.876221,816.181702 471.457550,816.229187 466.040497,816.155762 
	C464.161957,816.130310 463.170135,814.602295 462.205780,813.256470 
	C460.075226,810.283142 457.824249,807.371399 455.977356,804.226135 
	C453.989441,800.840759 451.040558,800.513428 447.790039,801.147522 
	C444.055878,801.876038 445.415039,805.052673 445.368256,807.279602 
	C445.180573,816.218872 445.259430,816.220459 436.385590,816.204956 
	C428.700195,816.191528 428.685333,816.191589 428.679382,808.451843 
	C428.667542,792.979553 428.789642,777.505859 428.595490,762.036011 
	C428.543213,757.869568 429.984619,756.519043 434.065277,756.631714 
	C442.377197,756.861145 450.700592,756.632812 459.018433,756.698547 
	C468.378571,756.772461 476.441956,761.815247 479.409058,769.306946 
	C483.065979,778.540344 481.001801,787.397095 473.711731,794.327576 
	C472.629486,795.356506 470.481964,795.794067 471.220428,798.348267 
M456.082611,772.100891 
	C454.424530,772.075500 452.752289,772.179321 451.111053,772.000000 
	C446.604614,771.507507 445.000244,773.313293 445.118103,777.927551 
	C445.351501,787.065430 445.120239,787.068970 454.552307,785.877075 
	C455.209229,785.794067 455.876404,785.731201 456.536804,785.746460 
	C461.125305,785.852234 464.099731,783.390686 464.360931,779.114075 
	C464.641052,774.528198 461.311310,772.487671 456.082611,772.100891 
z"/>
<path fill="#000000" opacity="1.000000" stroke="none" 
	d="
M410.518890,804.648926 
	C411.641754,808.450012 414.206573,811.411133 413.982300,815.796509 
	C408.823853,816.734863 403.714539,816.287781 398.642181,816.126404 
	C396.108429,816.045837 395.544556,813.689392 395.022064,811.874390 
	C393.735321,807.404419 390.944366,805.812500 386.439453,806.308777 
	C383.805450,806.598999 381.081757,806.614929 378.452759,806.300171 
	C372.654236,805.606140 368.277161,806.744324 367.265656,813.456848 
	C367.055145,814.853638 366.082306,815.967651 364.577454,816.032776 
	C359.321869,816.260376 354.052887,816.546387 348.925598,815.866272 
	C348.157135,812.753418 349.944000,810.887817 350.814148,808.828369 
	C357.555267,792.874023 364.484161,776.998718 371.162964,761.018738 
	C372.421082,758.008545 373.915955,756.637390 377.353912,756.608276 
	C390.253174,756.498840 390.261963,756.370850 395.303284,768.363770 
	C400.336121,780.336426 405.346497,792.318481 410.518890,804.648926 
M382.309082,792.752808 
	C383.900360,792.549438 385.662109,793.152710 387.398865,791.431091 
	C386.093018,786.232239 383.917236,781.180847 381.112000,774.819153 
	C378.564209,781.379211 376.228394,786.522461 374.881683,792.756226 
	C377.533173,792.756226 379.505005,792.756226 382.309082,792.752808 
z"/>
<path fill="#000000" opacity="1.000000" stroke="none" 
	d="
M333.740479,813.996155 
	C320.478760,820.366028 307.954895,820.191956 296.315521,811.248596 
	C286.200897,803.476746 282.760406,792.806641 285.225800,780.616699 
	C287.773956,768.017578 296.152283,760.285461 308.352997,756.922607 
	C320.393982,753.603821 330.968994,756.837341 340.299194,764.943909 
	C342.870728,767.178223 342.806396,768.964233 340.325684,771.001282 
	C339.682678,771.529175 339.071289,772.095764 338.446228,772.645508 
	C336.454193,774.397644 334.723633,776.906738 332.403412,777.707275 
	C329.623199,778.666626 328.127625,775.161133 325.854340,773.921936 
	C318.589172,769.961670 310.671295,770.727356 305.677856,776.169128 
	C300.798889,781.486145 300.312408,789.327271 304.480316,795.470154 
	C308.852753,801.914490 317.033203,804.402954 324.327576,801.397766 
	C326.004242,800.706970 327.825714,799.938354 329.059631,798.690430 
	C331.724396,795.995483 333.621826,796.550842 336.117950,799.046814 
	C343.799957,806.728455 343.790588,807.345093 333.740479,813.996155 
z"/>
<path fill="#000000" opacity="1.000000" stroke="none" 
	d="
M670.119263,393.288971 
	C670.258057,410.320526 667.185608,425.924500 655.450378,438.529633 
	C649.962097,444.424774 643.276001,448.091919 634.982422,447.035065 
	C633.102905,444.075195 636.815002,441.750275 635.098938,439.128357 
	C632.771729,439.454956 633.071960,442.669678 630.025757,442.959198 
	C625.735962,436.738647 624.760559,429.486908 626.118225,422.070465 
	C629.098999,405.786987 641.752136,394.620148 660.221802,391.741699 
	C663.441650,391.239868 667.244995,388.550201 670.119263,393.288971 
z"/>
<path fill="#000000" opacity="1.000000" stroke="none" 
	d="
M416.352783,869.726929 
	C412.153168,865.059021 408.749268,860.147827 403.341919,855.521729 
	C403.341919,860.533325 403.200500,864.624146 403.383820,868.700439 
	C403.549133,872.376465 402.961639,874.544556 398.363678,874.541199 
	C393.477234,874.537537 393.602356,871.806091 393.624786,868.432617 
	C393.682281,859.786804 393.544434,851.139404 393.641022,842.494324 
	C393.662964,840.531982 392.565094,837.761536 395.481293,836.952881 
	C398.086823,836.230469 400.727234,836.463745 402.769226,838.832886 
	C406.675781,843.365356 410.675507,847.817749 414.652771,852.288940 
	C415.522217,853.266418 416.223297,854.460266 418.179840,855.004395 
	C419.144867,850.616882 418.707642,846.216309 418.596222,841.905151 
	C418.497070,838.068665 419.769836,836.594177 423.735901,836.606934 
	C427.575562,836.619324 429.131439,837.859497 429.062469,841.782593 
	C428.907532,850.592163 429.110260,859.407776 429.001251,868.218750 
	C428.974915,870.349243 429.965454,873.411560 426.821472,874.092529 
	C423.988678,874.706116 420.806976,875.130432 418.551178,872.263489 
	C417.935516,871.481079 417.241791,870.760010 416.352783,869.726929 
z"/>
<path fill="#000000" opacity="1.000000" stroke="none" 
	d="
M374.504059,843.645447 
	C379.698425,851.502808 380.150177,859.229980 375.016296,866.809265 
	C370.459381,873.536865 363.555267,875.929749 355.849792,874.980469 
	C346.842926,873.870789 341.182068,868.147400 339.157227,859.396973 
	C337.437439,851.964905 341.140350,843.293518 347.826569,839.094971 
	C354.328156,835.012451 365.368835,835.684021 371.404388,840.575500 
	C372.433472,841.409424 373.316254,842.423828 374.504059,843.645447 
M361.581512,864.399353 
	C362.444763,863.913391 363.394806,863.535339 364.156372,862.922974 
	C367.679749,860.089844 368.777588,856.314087 367.054382,852.273315 
	C365.272888,848.095825 361.690582,846.046875 357.049377,846.418274 
	C352.477356,846.784119 350.505249,850.065796 349.586639,853.954895 
	C348.124695,860.144287 353.453339,865.077576 361.581512,864.399353 
z"/>
<path fill="#000000" opacity="1.000000" stroke="none" 
	d="
M563.340576,849.997314 
	C563.679321,855.105957 561.100647,858.237061 557.442322,860.812744 
	C558.883484,865.643555 563.216614,868.703186 564.383423,873.423889 
	C556.485840,875.775818 553.998535,874.961243 550.013428,868.932312 
	C549.373718,867.964600 548.709656,867.000610 547.950867,866.127014 
	C546.791870,864.792542 545.296326,863.936218 543.529602,864.564819 
	C541.722961,865.207642 542.004578,866.983154 542.029175,868.429932 
	C542.087646,871.869263 541.902100,874.576904 537.100830,874.486389 
	C533.015015,874.409302 531.564941,873.136719 531.604553,869.010620 
	C531.690735,860.035034 531.398499,851.053772 531.151855,842.077942 
	C531.053528,838.502075 531.952393,836.375244 536.169312,836.634338 
	C540.810364,836.919434 545.489990,836.538147 550.137878,836.759949 
	C557.899658,837.130493 562.757812,841.967896 563.340576,849.997314 
M550.376831,854.313477 
	C552.266357,853.384094 553.987000,852.195435 553.363037,849.779907 
	C552.842957,847.766785 550.914001,847.125977 549.126526,846.734558 
	C547.688538,846.419800 546.163391,846.452026 544.675354,846.427307 
	C541.594543,846.376160 541.381470,848.475586 541.339661,850.827881 
	C541.298035,853.171448 541.893066,854.758118 544.637817,854.628113 
	C546.295593,854.549683 547.957520,854.558716 550.376831,854.313477 
z"/>
<path fill="#000000" opacity="1.000000" stroke="none" 
	d="
M611.159729,839.315063 
	C611.245483,846.277832 611.460388,852.782349 611.228638,859.271057 
	C610.913696,868.088928 605.408203,873.676636 596.152649,875.057373 
	C588.458313,876.205139 580.146667,871.708801 578.407043,864.475769 
	C577.181030,859.377563 577.441406,853.915894 577.107422,848.612122 
	C576.981995,846.619568 577.021667,844.614380 577.038452,842.615417 
	C577.085754,836.965820 577.869873,836.374268 583.488464,836.737610 
	C586.190735,836.912292 587.403748,837.957214 587.351685,840.698792 
	C587.269531,845.029053 587.398987,849.363281 587.328247,853.693970 
	C587.292236,855.897339 587.705444,857.990723 588.310181,860.077942 
	C589.302673,863.503784 591.691772,864.920349 595.098999,864.604431 
	C598.605347,864.279297 600.549377,862.216492 600.623535,858.701843 
	C600.735962,853.372314 600.608948,848.037476 600.731995,842.708374 
	C600.778748,840.681702 599.840271,837.711182 602.628418,837.154480 
	C605.436523,836.593872 608.935913,835.118042 611.159729,839.315063 
z"/>
<path fill="#000000" opacity="1.000000" stroke="none" 
	d="
M471.779968,843.174316 
	C469.287567,847.808289 466.158752,849.379211 461.411102,846.927734 
	C459.510742,845.946533 457.259735,845.767578 455.091827,847.595215 
	C456.517181,850.354187 459.402527,850.457031 461.734985,851.178650 
	C471.172211,854.098083 474.610626,857.782104 473.636871,864.337769 
	C472.656281,870.939087 465.665833,875.608032 457.356812,875.211304 
	C451.764557,874.944275 445.929901,871.993713 442.300964,867.597534 
	C446.081116,861.464905 446.929932,861.233765 453.181244,864.483826 
	C454.056305,864.938721 455.020538,865.450317 455.965454,865.497742 
	C458.330231,865.616272 461.706818,866.669189 462.118683,863.265442 
	C462.445007,860.568848 459.277069,860.781189 457.240387,860.277039 
	C455.001556,859.722778 452.730560,859.103577 450.654633,858.127502 
	C446.461029,856.155945 443.458710,852.949890 443.843384,848.072876 
	C444.234680,843.111450 446.791626,839.121887 451.776611,837.599365 
	C458.026581,835.690430 464.243561,835.910034 470.009644,839.447998 
	C471.231537,840.197693 472.815613,840.891663 471.779968,843.174316 
z"/>
<path fill="#000000" opacity="1.000000" stroke="none" 
	d="
M643.256958,846.295776 
	C638.637817,847.139465 636.011780,849.649170 635.420166,853.919373 
	C634.874817,857.855164 636.250244,861.191040 639.599060,863.430481 
	C643.210388,865.845581 646.994873,865.538513 650.270203,862.927551 
	C654.466003,859.583008 656.891907,862.848633 659.002502,865.305664 
	C661.853882,868.625000 657.923645,869.954834 656.163269,871.301880 
	C648.126282,877.452209 635.510315,875.911499 629.095337,868.252686 
	C622.928772,860.890320 623.276611,848.818909 629.846680,842.180542 
	C637.121033,834.830566 649.822876,834.299927 657.585754,841.059631 
	C659.077698,842.358704 661.026367,843.794250 658.880188,845.938843 
	C656.749695,848.067749 654.764343,851.278320 650.987061,848.931335 
	C648.691467,847.505066 646.484680,846.082397 643.256958,846.295776 
z"/>
<path fill="#000000" opacity="1.000000" stroke="none" 
	d="
M311.930115,875.248901 
	C299.736877,873.716797 293.578979,868.458923 292.183411,857.940674 
	C291.280365,851.134521 294.314056,842.126831 302.314667,838.507568 
	C309.799805,835.121460 320.135010,836.327942 325.139557,841.599060 
	C326.481537,843.012573 327.742554,844.571472 325.654907,846.196594 
	C323.338013,848.000061 321.397156,851.456665 317.619415,848.839722 
	C314.247864,846.504089 310.841736,845.333801 307.008698,847.838074 
	C302.640442,850.691956 301.460571,855.970459 304.266083,860.416809 
	C307.162384,865.007019 312.236176,866.253296 316.757629,863.369080 
	C318.791565,862.071594 320.296844,859.959412 323.196960,862.332397 
	C328.299103,866.507080 328.342316,868.253479 322.657379,871.749634 
	C319.492157,873.696167 316.023285,874.763062 311.930115,875.248901 
z"/>
<path fill="#000000" opacity="1.000000" stroke="none" 
	d="
M506.419434,862.012451 
	C506.411835,865.004211 506.222809,867.518860 506.438324,869.998291 
	C506.768646,873.798645 504.980011,874.930908 501.461090,874.944702 
	C497.778625,874.959045 496.489746,873.446289 496.616547,869.821777 
	C496.826050,863.831909 496.465393,857.820251 496.732513,851.835022 
	C496.915771,847.729004 495.480865,846.185242 491.326599,846.275513 
	C486.244934,846.385986 485.211334,844.858398 485.811096,840.016296 
	C486.088470,837.776855 487.124084,836.734314 489.338715,836.735413 
	C497.667816,836.739563 505.996887,836.725769 514.325989,836.727905 
	C517.635071,836.728760 517.940796,839.146240 518.020203,841.554199 
	C518.092407,843.742310 518.118958,845.979065 514.991455,846.319092 
	C512.396179,846.601257 509.105194,845.157104 507.347504,847.299072 
	C505.285645,849.811768 506.637329,853.406067 506.433228,856.523071 
	C506.324615,858.181702 506.417389,859.853638 506.419434,862.012451 
z"/>
<path fill="#000000" opacity="1.000000" stroke="none" 
	d="
M676.176025,836.744263 
	C683.298096,836.745605 689.943726,836.895508 696.578552,836.692322 
	C700.339966,836.577148 701.457092,838.111145 701.421814,841.697510 
	C701.388611,845.060974 700.364014,846.782471 696.837830,846.325073 
	C692.304626,845.737122 691.099976,847.961731 691.281921,852.144592 
	C691.541443,858.109985 691.186523,864.100586 691.383423,870.070801 
	C691.505493,873.774353 689.686890,874.486267 686.509338,874.475159 
	C683.382019,874.464233 681.461182,873.871826 681.577576,870.120972 
	C681.768127,863.984131 681.439758,857.830017 681.669556,851.695923 
	C681.822327,847.620056 680.380798,845.867065 676.226929,846.275940 
	C673.262817,846.567627 670.595459,846.460022 670.625610,842.118103 
	C670.651306,838.428528 671.646667,836.322205 676.176025,836.744263 
z"/>
<path fill="#000000" opacity="1.000000" stroke="none" 
	d="
M485.229309,557.142944 
	C471.308044,557.205444 457.814392,557.090027 444.325073,557.281372 
	C440.293854,557.338623 438.644196,556.158875 438.693848,551.922913 
	C438.863617,537.433411 438.830933,522.939636 438.682129,508.449493 
	C438.642487,504.585724 439.851837,503.247406 443.892181,503.336975 
	C456.876709,503.624725 469.871796,503.607422 482.859650,503.449860 
	C485.978119,503.412018 487.420715,503.918030 487.392822,507.408600 
	C487.270508,522.731934 487.352661,538.057007 487.360931,553.381409 
	C487.361755,554.876953 487.570923,556.467468 485.229309,557.142944 
z"/>
<path fill="#000000" opacity="1.000000" stroke="none" 
	d="
M512.305237,503.531647 
	C526.852234,503.434998 540.992615,503.580200 555.130981,503.464447 
	C558.135254,503.439850 559.348755,504.180450 559.330383,507.292175 
	C559.241150,522.437378 559.245850,537.583618 559.319336,552.729004 
	C559.334534,555.857544 558.224060,557.257935 554.958435,557.236694 
	C541.644104,557.150024 528.328613,557.166199 515.014099,557.241150 
	C512.118591,557.257446 510.703217,556.226196 510.710297,553.202026 
	C510.746460,537.723572 510.709473,522.244995 510.712372,506.766418 
	C510.712585,505.607178 510.708832,504.403046 512.305237,503.531647 
z"/>
<path fill="#000000" opacity="1.000000" stroke="none" 
	d="
M518.112305,630.149170 
	C510.745300,630.090576 510.738190,630.090576 510.732635,623.186646 
	C510.721863,609.874634 510.882294,596.559570 510.626648,583.252380 
	C510.536774,578.574280 511.868408,576.741333 516.790649,576.840393 
	C529.098389,577.088196 541.417419,576.962402 553.728271,576.764221 
	C557.623230,576.701538 559.446594,577.665894 559.377747,582.024353 
	C559.152039,596.331299 559.171570,610.644897 559.328674,624.953430 
	C559.372253,628.922729 557.824097,630.220154 554.039917,630.181580 
	C542.226807,630.060974 530.411621,630.142700 518.112305,630.149170 
z"/>
<path fill="#000000" opacity="1.000000" stroke="none" 
	d="
M444.212402,577.007751 
	C457.180817,576.992249 469.674225,577.088806 482.163269,576.898438 
	C486.024658,576.839600 487.455414,578.075562 487.408142,582.037720 
	C487.237366,596.359497 487.229156,610.686279 487.421906,625.007568 
	C487.476410,629.058167 485.833282,630.212585 482.108917,630.174561 
	C469.451813,630.045166 456.792389,630.023438 444.135010,630.118164 
	C440.340790,630.146545 438.753296,628.760254 438.782440,624.842407 
	C438.888855,610.519531 438.874451,596.193909 438.690887,581.872070 
	C438.642151,578.068909 440.218201,576.727234 444.212402,577.007751 
z"/>
</svg>